PathFileType	4	(X/Y/Z)	C:/Users/beibeiliu/ov580/test_trc/User3\sequence.19_training_dense_right.trc
DataRate	CameraRate	NumFrames	NumMarkers	Units	OrigDataRate	OrigDataStartFrame	OrigNumFrames
120	120	18	19	mm	120	207	275
Frame#	Time	ThumbCMC			ThumbMCP			ThumbIP			ThumbTip			IndexMCP			IndexPIP			IndexTip			MiddleMCP			MiddlePIP			MiddleTip			RingMCP			RingPIP			RingTip			PinkyMCP			PinkyPIP			PinkyTip			BackHand1			BackHand2			BackHand3	
		X0	Y0	Z0	X1	Y1	Z1	X2	Y2	Z2	X3	Y3	Z3	X4	Y4	Z4	X5	Y5	Z5	X6	Y6	Z6	X7	Y7	Z7	X8	Y8	Z8	X9	Y9	Z9	X10	Y10	Z10	X11	Y11	Z11	X12	Y12	Z12	X13	Y13	Z13	X14	Y14	Z14	X15	Y15	Z15	X16	Y16	Z16	X17	Y17	Z17	X18	Y18	Z18	
206	1.71667	101.482	-30.0629	33.8853	80.3948	-36.5009	15.1469	60.1815	-41.0919	-6.20178	46.8818	-46.1657	-18.6591	119.518	-31.3534	-45.4371	114.281	-36.7005	-68.2763	115.205	-39.5913	-93.0551	140.182	-53.526	-41.6831	136.203	-87.6088	-38.0135	129.782	-79.7505	2.45835	157.254	-61.2833	-30.4046	149.701	-90.2923	-14.9525	141.991	-73.1516	13.8084	172.123	-61.7202	-20.207	158.241	-86.2033	-11.2954	151.505	-74.0164	13.9717	159.293	-17.2194	5.91199	163.098	-13.3954	35.9883	129.973	-13.2753	19.8535	
207	1.725	102.06	-28.8919	36.7645	82.7135	-36.7064	15.4901	59.0192	-40.0259	-3.59854	44.9274	-45.742	-13.5141	115.499	-41.224	-44.6758	114.085	-49.4695	-67.225	111.616	-56.8275	-88.2914	134.326	-69.8534	-39.4385	128.075	-97.3971	-29.6831	122.84	-83.2727	10.1983	152.016	-72.3637	-24.5835	141.892	-98.0136	-4.70298	136.864	-80.3166	19.3835	167.032	-72.889	-14.7106	154.781	-96.2821	0.488882	146.342	-77.9007	21.0185	160.878	-24.0495	4.39768	166.129	-15.1349	37.2033	130.775	-13.43	20.1477	
208	1.73333	101.487	-26.3484	36.2962	80.509	-33.2437	20.6106	59.7688	-38.8311	-1.18007	41.2023	-41.4978	-12.9128	111.426	-47.7856	-40.0755	106.413	-58.1894	-60.3041	104.641	-71.4078	-87.7492	126.222	-77.3996	-33.4687	119.3	-104.679	-19.195	118.384	-87.293	17.122	142.543	-81.4187	-19.35	131.815	-102.61	-0.755554	130.271	-81.1914	26.9955	157.949	-86.8745	-9.83951	147.699	-102.525	8.17444	140.007	-80.7968	28.3479	158.451	-32.3472	4.53025	164.622	-19.4584	31.4048	131.947	-18.0944	15.0315	
209	1.74167	101.042	-21.7281	38.7297	80.8764	-31.0652	20.8743	60.287	-35.3501	4.46943	39.8527	-37.6998	-8.04975	107.21	-52.1995	-34.2133	101.491	-67.1623	-56.8279	97.7252	-79.3166	-76.2452	121.267	-81.2313	-25.1997	108.198	-107.102	-7.83568	108.252	-83.3862	24.5995	133.933	-88.4714	-12.2676	122.639	-104.165	15.8827	124.697	-76.3265	35.2286	148.952	-92.7522	-2.65118	132.499	-102.147	19.122	133.051	-79.3515	36.5285	160.388	-41.2327	3.57968	167.199	-26.2759	32.1617	134.307	-21.0442	16.3263	
210	1.75	107.784	-20.5689	39.9442	83.3946	-29.5857	21.8435	59.439	-32.4472	6.65453	41.6972	-32.3653	1.5128	101.014	-57.1923	-32.7128	94.2851	-70.7741	-49.4983	83.2367	-86.2086	-72.0891	109.817	-89.3862	-18.3189	91.2745	-104.347	2.90387	101.024	-81.3894	31.7902	126.029	-92.0338	-4.69661	109.039	-103.108	22.031	113.246	-77.3032	41.2042	142.564	-96.5925	5.31972	123.079	-103.02	26.6903	126.508	-77.8261	41.3367	154.604	-45.3843	6.14161	167.547	-27.649	31.9128	134.267	-20.009	16.7768	
211	1.75833	104.968	-14.9792	39.7125	81.7821	-19.8529	29.6725	56.4876	-21.2184	13.6917	37.5231	-20.9219	7.12003	92.2811	-59.1936	-28.5245	81.3078	-71.5357	-44.6817	68.6005	-87.8622	-63.4168	98.4515	-85.2984	-12.3334	80.8463	-101.343	10.1224	93.0923	-77.1575	38.8867	110.177	-94.7585	3.30756	99.8299	-103.12	31.6802	109.88	-75.9688	48.3902	128.108	-101.904	13.1247	112.056	-103.726	32.4708	120.939	-75.6187	49.0694	149.621	-51.8754	5.16146	167.02	-36.6224	32.2285	134.717	-23.9788	14.4146	
212	1.76667	105.715	-11.8385	39.6712	84.2087	-19.2442	32.1621	56.4809	-12.9401	19.0065	36.8257	-10.8482	11.8929	84.1506	-55.9561	-22.5605	70.3182	-67.73	-35.4285	54.7303	-82.9553	-54.1001	85.6199	-86.4265	-4.99471	67.1208	-94.1634	17.7795	85.8761	-72.8077	45.5588	100.279	-97.5217	11.4051	86.5088	-96.665	39.0832	101.785	-71.2555	53.7334	114.555	-102.989	20.9171	100.101	-98.472	43.8763	114.957	-73.2993	53.7199	145.495	-55.6368	7.96664	160.839	-40.5375	29.4866	131.926	-24.0199	15.9991	
213	1.775	109.963	-8.73212	41.9154	81.8906	-10.7691	30.8389	56.5649	-6.00805	20.2644	36.9237	-0.0611254	12.4127	78.7091	-49.8147	-15.3863	60.5499	-61.2076	-30.318	41.9577	-74.7579	-47.7255	78.1715	-78.421	-0.00992145	56.6888	-86.78	26.1218	83.4849	-65.646	51.0129	86.7237	-89.2393	15.3302	76.4331	-90.7518	43.1028	94.6271	-62.546	56.3051	104	-98.568	25.4019	91.1425	-93.5824	50.4695	104.653	-69.4985	56.4109	141.781	-58.3538	11.6915	161.931	-44.6127	31.8459	133.085	-22.4326	18.4994	
214	1.78333	114.275	-1.07568	42.376	88.7993	-2.91427	34.3612	61.197	8.72883	20.6222	45.202	17.0677	17.1826	73.4613	-41.5344	-14.209	54.7763	-51.3469	-27.2844	33.6622	-59.4531	-42.1092	67.8316	-67.2725	3.43084	48.7798	-74.904	27.9816	73.4363	-52.7182	53.6306	76.8697	-80.2627	18.5897	66.4786	-77.9768	48.7642	89.4184	-57.0459	59.5039	92.2486	-93.6567	30.7766	80.0857	-80.8216	53.6428	100.55	-60.7119	58.1583	133.631	-62.5486	11.7692	158.61	-51.0222	29.5679	133.682	-25.2251	19.328	
215	1.79167	121.267	6.75604	38.7697	94.9073	14.2463	28.6032	73.5826	26.9238	18.8664	57.677	39.8231	12.8346	72.4715	-28.1841	-15.5605	51.1995	-30.1693	-30.0485	29.9653	-35.2608	-41.6558	60.3373	-48.6434	2.92087	40.7212	-50.7402	26.7111	70.7528	-38.4006	53.3959	70.4442	-66.9848	20.3905	58.6559	-56.861	48.4941	83.2812	-41.9511	57.6764	80.2361	-77.8887	30.1067	70.9666	-68.4647	54.7161	93.6041	-50.4831	61.3791	129.233	-54.6567	13.6348	154.199	-48.0314	30.5089	133.793	-18.1737	14.8601	
216	1.8	130.172	13.9675	34.8073	106.182	23.3117	26.1219	83.8472	38.5214	12.8163	71.3889	54.9138	5.27581	77.3696	-14.0438	-17.379	55.374	-14.7486	-31.5098	32.607	-17.6621	-44.556	64.5199	-35.0626	0.118039	41.1347	-31.7084	26.9576	69.019	-18.7009	49.4341	64.9946	-50.7329	17.6695	54.5148	-43.4027	44.154	84.9903	-27.9298	53.6052	75.3978	-65.9429	30.5324	65.6105	-49.6474	50.716	94.5522	-39.7713	58.459	124.892	-51.0973	11.6551	150.768	-51.0801	29.6864	139.018	-18.8861	17.3801	
217	1.80833	139.978	14.2505	32.5865	120.056	30.759	21.3337	100.118	49.2232	5.24156	88.4014	61.1257	0.318321	85.2598	-3.51628	-22.0879	62.6775	0.405622	-36.9457	39.1543	0.778322	-49.5512	63.4311	-25.9719	-2.49645	43.1905	-16.192	20.1296	73.9499	-8.86735	46.3092	64.8697	-39.2531	15.0911	55.0437	-28.9395	42.0012	84.2936	-16.3306	51.731	72.5369	-56.3249	29.2496	61.6183	-39.4661	47.9829	86.6713	-25.3838	55.8411	124.783	-50.0188	16.4069	148.698	-51.8386	30.5582	141.669	-18.8395	14.462	
218	1.81667	150.348	13.6009	28.8612	131.783	33.1526	15.1746	117.936	54.518	-1.79897	111.573	70.1171	-8.67042	93.5121	3.37531	-25.1982	71.7258	11.6375	-40.9059	47.9941	14.3118	-54.2311	71.0812	-12.4765	-8.30608	48.8174	0.45862	14.9713	77.9722	4.24954	43.2451	67.0904	-26.8214	11.6168	55.1612	-15.3399	34.9449	85.9781	-7.03804	49.0414	73.7508	-43.4613	23.8392	59.0966	-28.4219	43.4721	88.7673	-13.9656	51.0678	127.62	-47.538	14.3514	151.001	-49.7206	31.1334	146.129	-21.4979	12.4088	
219	1.825	159.682	12.0429	27.239	148.136	35.3996	11.041	137.183	55.928	-8.00643	132.919	72.5906	-15.7045	101.768	6.57724	-27.2069	81.0045	18.7212	-45.1858	63.7944	27.1623	-57.9822	76.8897	-2.94015	-12.7419	58.5144	15.2519	6.23425	83.7238	18.4172	36.9875	71.0396	-17.4534	7.89854	62.3949	1.77846	28.0317	92.4307	5.36466	44.224	73.0589	-30.883	19.794	62.3706	-12.9242	34.4692	88.2366	-3.96286	49.348	125.77	-44.2962	14.4575	149.41	-48.5948	32.1067	153.55	-19.3023	13.0328	
220	1.83333	171.347	12.2187	21.3426	157.894	33.5973	4.91384	153.87	56.7316	-11.8737	150.485	73.5958	-24.6361	113.347	14.5776	-35.7099	95.3241	27.8601	-52.7775	78.7743	39.4514	-66.4926	84.2907	4.20772	-17.1318	71.0685	30.1039	1.73217	93.0514	25.2907	31.6995	81.9726	-9.18462	1.09354	69.7853	12.2203	22.6012	99.6217	13.6772	37.9949	78.5888	-21.0665	16.2581	68.3149	0.567319	33.313	93.6543	8.00359	43.5281	126.481	-41.9673	12.7551	151.612	-47.3707	33.197	154.271	-19.5472	6.838	
221	1.84167	177.07	10.7789	17.362	171.4	33.5294	2.62682	166.467	53.2144	-14.8236	165.5	71.8474	-30.0703	121.765	13.3928	-41.0258	108.513	26.1471	-56.71	94.9972	42.2805	-73.8518	95.2811	7.40457	-22.1659	83.433	37.6383	-6.58998	104.74	32.3062	24.1196	88.3572	-3.85393	-3.4021	79.3565	20.4993	16.4458	107.707	20.1244	30.5507	81.195	-18.278	13.5145	74.7985	6.80609	22.0729	98.3326	11.3678	40.864	132.799	-40.461	9.30124	154.21	-46.3297	30.3877	162.473	-22.927	5.45232	
222	1.85	182.697	8.44748	14.3656	178.284	27.9712	0.258022	178.644	51.1944	-23.5203	179.855	67.1133	-32.3557	133.483	12.1606	-47.1518	119.748	24.231	-66.5176	110.23	37.8135	-81.9207	106.998	8.12419	-30.6727	93.2238	38.483	-16.6082	113.661	35.9267	14.5562	94.5598	1.57784	-13.0859	87.8732	22.801	5.70902	117.371	17.5404	24.0183	85.424	-12.1049	4.11929	83.6654	12.6667	15.4389	106.487	16.4034	29.4907	135.062	-41.4517	5.91996	153.819	-47.0245	26.1954	167.76	-21.9053	1.09503	
223	1.85833	186.639	4.08365	14.1126	185.356	25.9208	-7.62049	186.425	43.5674	-23.4218	191.345	63.2846	-42.3074	147.682	6.59838	-52.4533	140.144	18.8505	-74.5008	124.414	29.8999	-94.3041	116.291	7.3503	-41.1478	102.42	34.151	-26.2838	120.587	31.8906	4.3245	101.17	-0.783921	-22.5779	98.1811	23.3579	-5.29511	124.293	15.327	15.7528	97.9481	-16.5959	-4.52667	91.8163	12.5026	3.48595	115.344	10.7994	23.4752	143.809	-42.3045	0.247675	158.998	-50.389	23.272	176.444	-27.9786	1.50877	
